<?xml version="1.0" encoding="utf-8"?>
<!-- Generator: Adobe Illustrator 22.1.0, SVG Export Plug-In . SVG Version: 6.00 Build 0)  -->
<svg version="1.1" id="Layer_1" xmlns="http://www.w3.org/2000/svg" xmlns:xlink="http://www.w3.org/1999/xlink" x="0px" y="0px"
	 viewBox="0 0 406.1 300" style="enable-background:new 0 0 406.1 300;" xml:space="preserve">
<style type="text/css">
	.st0{fill:#79C142;}
</style>
<g>
	<g>
		<g>
			<path class="st0" d="M256.6,257.6c-59.3,0-107.6-48.3-107.6-107.6c0-2.8,2.3-5.1,5.1-5.1c2.8,0,5.1,2.3,5.1,5.1
				c0,53.7,43.7,97.4,97.4,97.4S354,203.7,354,150s-43.7-97.4-97.4-97.4c-2.8,0-5.1-2.3-5.1-5.1c0-2.8,2.3-5.1,5.1-5.1
				c59.3,0,107.6,48.3,107.6,107.6S316,257.6,256.6,257.6z"/>
		</g>
		<g>
			<path class="st0" d="M256.6,222.8c-40.1,0-72.8-32.6-72.8-72.8c0-2.8,2.3-5.1,5.1-5.1c2.8,0,5.1,2.3,5.1,5.1
				c0,34.5,28.1,62.6,62.6,62.6s62.6-28.1,62.6-62.6s-28.1-62.6-62.6-62.6c-2.8,0-5.1-2.3-5.1-5.1c0-2.8,2.3-5.1,5.1-5.1
				c40.1,0,72.8,32.6,72.8,72.8S296.8,222.8,256.6,222.8z"/>
		</g>
	</g>
	<g>
		<g>
			<path class="st0" d="M149.5,257.6c-59.3,0-107.6-48.3-107.6-107.6S90.1,42.4,149.5,42.4C208.8,42.4,257,90.7,257,150
				c0,2.8-2.3,5.1-5.1,5.1s-5.1-2.3-5.1-5.1c0-53.7-43.7-97.4-97.4-97.4c-53.7,0-97.4,43.7-97.4,97.4s43.7,97.4,97.4,97.4
				c2.8,0,5.1,2.3,5.1,5.1C154.6,255.3,152.3,257.6,149.5,257.6z"/>
		</g>
		<g>
			<path class="st0" d="M149.5,222.8c-40.1,0-72.8-32.6-72.8-72.8s32.6-72.8,72.8-72.8s72.8,32.6,72.8,72.8c0,2.8-2.3,5.1-5.1,5.1
				s-5.1-2.3-5.1-5.1c0-34.5-28.1-62.6-62.6-62.6S86.9,115.5,86.9,150s28.1,62.6,62.6,62.6c2.8,0,5.1,2.3,5.1,5.1
				C154.6,220.5,152.3,222.8,149.5,222.8z"/>
		</g>
	</g>
</g>
</svg>
