<?xml version="1.0" encoding="utf-8"?>
<!-- Generator: Adobe Illustrator 22.1.0, SVG Export Plug-In . SVG Version: 6.00 Build 0)  -->
<svg version="1.1" id="Layer_1" xmlns="http://www.w3.org/2000/svg" xmlns:xlink="http://www.w3.org/1999/xlink" x="0px" y="0px"
	 viewBox="0 0 300 300" style="enable-background:new 0 0 300 300;" xml:space="preserve">
<style type="text/css">
	.st0{fill:#79C142;}
</style>
<g>
	<path class="st0" d="M243.7,247H68c-2.8,0-5.1,2.3-5.1,5.1c0,2.8,2.3,5.1,5.1,5.1h175.7c2.8,0,5.1-2.3,5.1-5.1
		C248.8,249.3,246.5,247,243.7,247z"/>
	<path class="st0" d="M243.7,231H68c-2.8,0-5.1,2.3-5.1,5.1s2.3,5.1,5.1,5.1h175.7c2.8,0,5.1-2.3,5.1-5.1S246.5,231,243.7,231z"/>
	<path class="st0" d="M199.4,99h-98.8c-4.3,0-7.9,3.5-7.9,7.9v20c0,4.3,3.5,7.9,7.9,7.9h98.8c4.3,0,7.9-3.5,7.9-7.9v-20
		C207.3,102.5,203.8,99,199.4,99z"/>
	<path class="st0" d="M232,58.6H120.6v-28c0-3.5-3.9-5.6-6.9-3.7L99.9,36l-13.8-9.1c-2.9-1.9-6.9,0.2-6.9,3.7v28H68
		c-14.2,0-25.7,11.5-25.7,25.7v163.9c0,14.1,11.5,25.7,25.7,25.7h175.7c2.8,0,5.1-2.3,5.1-5.1c0-2.8-2.3-5.1-5.1-5.1H71.5
		c-10.4,0-18.9-8.5-18.9-18.9s8.5-18.9,18.9-18.9h21.3H232h1.5c0.4,0,0.8-0.1,1.1-0.1c12.9-1.3,23.1-12.3,23.1-25.5V84.3
		C257.6,70.1,246.1,58.6,232,58.6z M247.4,200.1c0,8.5-6.9,15.5-15.5,15.5H92.9H71.5c-7.2,0-13.8,2.7-18.9,7V84.3
		c0-8.5,6.9-15.5,15.5-15.5H232c8.5,0,15.5,6.9,15.5,15.5V200.1z"/>
</g>
</svg>
