<?xml version="1.0" encoding="utf-8"?>
<!-- Generator: Adobe Illustrator 22.1.0, SVG Export Plug-In . SVG Version: 6.00 Build 0)  -->
<svg version="1.1" id="Layer_1" xmlns="http://www.w3.org/2000/svg" xmlns:xlink="http://www.w3.org/1999/xlink" x="0px" y="0px"
	 viewBox="0 0 300 300" style="enable-background:new 0 0 300 300;" xml:space="preserve">
<style type="text/css">
	.st0{fill:#79C142;}
</style>
<g>
	<path class="st0" d="M232,50.9h-8.1V39c0-2.8-2.3-5.1-5.1-5.1c-2.8,0-5.1,2.3-5.1,5.1v11.8H178V39c0-2.8-2.3-5.1-5.1-5.1
		c-2.8,0-5.1,2.3-5.1,5.1v11.8h-35.6V39c0-2.8-2.3-5.1-5.1-5.1c-2.8,0-5.1,2.3-5.1,5.1v11.8H86.3V39c0-2.8-2.3-5.1-5.1-5.1
		s-5.1,2.3-5.1,5.1v11.8H68c-14.1,0-25.7,11.5-25.7,25.7v163.9c0,14.1,11.5,25.7,25.7,25.7H232c14.1,0,25.7-11.5,25.7-25.7V76.5
		C257.6,62.4,246.1,50.9,232,50.9z M247.4,240.4c0,8.5-6.9,15.5-15.5,15.5H68c-8.5,0-15.5-6.9-15.5-15.5V76.5
		c0-8.5,6.9-15.5,15.5-15.5h8.1v11.8c0,2.8,2.3,5.1,5.1,5.1s5.1-2.3,5.1-5.1V61.1H122v11.8c0,2.8,2.3,5.1,5.1,5.1
		c2.8,0,5.1-2.3,5.1-5.1V61.1h35.6v11.8c0,2.8,2.3,5.1,5.1,5.1c2.8,0,5.1-2.3,5.1-5.1V61.1h35.6v11.8c0,2.8,2.3,5.1,5.1,5.1
		c2.8,0,5.1-2.3,5.1-5.1V61.1h8.1c8.5,0,15.5,6.9,15.5,15.5V240.4z"/>
	<path class="st0" d="M160,90.6h-20c-8.3,0-15.1,6.8-15.1,15.1v20c0,8.3,6.8,15.1,15.1,15.1h20c8.3,0,15.1-6.8,15.1-15.1v-20
		C175.1,97.4,168.3,90.6,160,90.6z M164.9,125.8c0,2.7-2.2,4.9-4.9,4.9h-20c-2.7,0-4.9-2.2-4.9-4.9v-20c0-2.7,2.2-4.9,4.9-4.9h20
		c2.7,0,4.9,2.2,4.9,4.9V125.8z"/>
	<path class="st0" d="M160,143.5h-20c-8.3,0-15.1,6.8-15.1,15.1v20c0,8.3,6.8,15.1,15.1,15.1h20c8.3,0,15.1-6.8,15.1-15.1v-20
		C175.1,150.3,168.3,143.5,160,143.5z M164.9,178.7c0,2.7-2.2,4.9-4.9,4.9h-20c-2.7,0-4.9-2.2-4.9-4.9v-20c0-2.7,2.2-4.9,4.9-4.9h20
		c2.7,0,4.9,2.2,4.9,4.9V178.7z"/>
	<path class="st0" d="M160,196.5h-20c-8.3,0-15.1,6.8-15.1,15.1v20c0,8.3,6.8,15.1,15.1,15.1h20c8.3,0,15.1-6.8,15.1-15.1v-20
		C175.1,203.3,168.3,196.5,160,196.5z M164.9,231.6c0,2.7-2.2,4.9-4.9,4.9h-20c-2.7,0-4.9-2.2-4.9-4.9v-20c0-2.7,2.2-4.9,4.9-4.9h20
		c2.7,0,4.9,2.2,4.9,4.9V231.6z"/>
	<path class="st0" d="M216,90.6h-20c-8.3,0-15.1,6.8-15.1,15.1v20c0,8.3,6.8,15.1,15.1,15.1h20c8.3,0,15.1-6.8,15.1-15.1v-20
		C231.1,97.4,224.3,90.6,216,90.6z M220.9,125.8c0,2.7-2.2,4.9-4.9,4.9h-20c-2.7,0-4.9-2.2-4.9-4.9v-20c0-2.7,2.2-4.9,4.9-4.9h20
		c2.7,0,4.9,2.2,4.9,4.9V125.8z"/>
	<path class="st0" d="M216,143.5h-20c-8.3,0-15.1,6.8-15.1,15.1v20c0,8.3,6.8,15.1,15.1,15.1h20c8.3,0,15.1-6.8,15.1-15.1v-20
		C231.1,150.3,224.3,143.5,216,143.5z M220.9,178.7c0,2.7-2.2,4.9-4.9,4.9h-20c-2.7,0-4.9-2.2-4.9-4.9v-20c0-2.7,2.2-4.9,4.9-4.9h20
		c2.7,0,4.9,2.2,4.9,4.9V178.7z"/>
	<path class="st0" d="M216,196.5h-20c-8.3,0-15.1,6.8-15.1,15.1v20c0,8.3,6.8,15.1,15.1,15.1h20c8.3,0,15.1-6.8,15.1-15.1v-20
		C231.1,203.3,224.3,196.5,216,196.5z M220.9,231.6c0,2.7-2.2,4.9-4.9,4.9h-20c-2.7,0-4.9-2.2-4.9-4.9v-20c0-2.7,2.2-4.9,4.9-4.9h20
		c2.7,0,4.9,2.2,4.9,4.9V231.6z"/>
	<path class="st0" d="M104,90.6H84c-8.3,0-15.1,6.8-15.1,15.1v20c0,8.3,6.8,15.1,15.1,15.1h20c8.3,0,15.1-6.8,15.1-15.1v-20
		C119.2,97.4,112.4,90.6,104,90.6z M108.9,125.8c0,2.7-2.2,4.9-4.9,4.9H84c-2.7,0-4.9-2.2-4.9-4.9v-20c0-2.7,2.2-4.9,4.9-4.9h20
		c2.7,0,4.9,2.2,4.9,4.9V125.8z"/>
	<path class="st0" d="M104,143.5H84c-8.3,0-15.1,6.8-15.1,15.1v20c0,8.3,6.8,15.1,15.1,15.1h20c8.3,0,15.1-6.8,15.1-15.1v-20
		C119.2,150.3,112.4,143.5,104,143.5z M108.9,178.7c0,2.7-2.2,4.9-4.9,4.9H84c-2.7,0-4.9-2.2-4.9-4.9v-20c0-2.7,2.2-4.9,4.9-4.9h20
		c2.7,0,4.9,2.2,4.9,4.9V178.7z"/>
	<path class="st0" d="M104,196.5H84c-8.3,0-15.1,6.8-15.1,15.1v20c0,8.3,6.8,15.1,15.1,15.1h20c8.3,0,15.1-6.8,15.1-15.1v-20
		C119.2,203.3,112.4,196.5,104,196.5z M108.9,231.6c0,2.7-2.2,4.9-4.9,4.9H84c-2.7,0-4.9-2.2-4.9-4.9v-20c0-2.7,2.2-4.9,4.9-4.9h20
		c2.7,0,4.9,2.2,4.9,4.9V231.6z"/>
</g>
</svg>
