<?xml version="1.0" encoding="utf-8"?>
<!-- Generator: Adobe Illustrator 22.1.0, SVG Export Plug-In . SVG Version: 6.00 Build 0)  -->
<svg version="1.1" id="Layer_1" xmlns="http://www.w3.org/2000/svg" xmlns:xlink="http://www.w3.org/1999/xlink" x="0px" y="0px"
	 viewBox="0 0 300 300" style="enable-background:new 0 0 300 300;" xml:space="preserve">
<style type="text/css">
	.st0{fill:#002749;}
</style>
<g>
	<path class="st0" d="M232,58.7H120.6v-28c0-3.5-3.9-5.6-6.9-3.7L99.9,36l-13.8-9.1c-2.9-1.9-6.9,0.2-6.9,3.7v28H68
		c-14.2,0-25.7,11.5-25.7,25.7v163.9c0,14.2,11.5,25.7,25.7,25.7h175.7c2.8,0,5.1-2.3,5.1-5.1s-2.3-5.1-5.1-5.1H71.5
		c-10.4,0-18.9-8.5-18.9-18.9c0-10.4,8.5-18.9,18.9-18.9h21.3H232h1.5c0.4,0,0.8-0.1,1.1-0.1c12.9-1.3,23.1-12.3,23.1-25.5V84.3
		C257.6,70.2,246.1,58.7,232,58.7z M192.3,132.4l-16.5,16.1c-1.5,1.5-2.2,3.6-1.9,5.7l3.9,22.8c0.4,2.5-2.2,4.3-4.4,3.2L153,169.4
		c-1.9-1-4.1-1-6,0l-20.4,10.7c-2.2,1.2-4.8-0.7-4.4-3.2l3.9-22.8c0.4-2.1-0.3-4.2-1.9-5.7l-16.5-16.1c-1.8-1.7-0.8-4.8,1.7-5.1
		l22.9-3.3c2.1-0.3,3.9-1.6,4.9-3.5l10.2-20.7c1.1-2.2,4.3-2.2,5.4,0l10.2,20.7c0.9,1.9,2.8,3.2,4.9,3.5l22.9,3.3
		C193.1,127.6,194.1,130.6,192.3,132.4z"/>
	<path class="st0" d="M243.7,247H68c-2.8,0-5.1,2.3-5.1,5.1s2.3,5.1,5.1,5.1h175.7c2.8,0,5.1-2.3,5.1-5.1S246.5,247,243.7,247z"/>
	<path class="st0" d="M243.7,231H68c-2.8,0-5.1,2.3-5.1,5.1s2.3,5.1,5.1,5.1h175.7c2.8,0,5.1-2.3,5.1-5.1S246.5,231,243.7,231z"/>
</g>
</svg>
