<?xml version="1.0" encoding="utf-8"?>
<!-- Generator: Adobe Illustrator 22.1.0, SVG Export Plug-In . SVG Version: 6.00 Build 0)  -->
<svg version="1.1" id="Layer_1" xmlns="http://www.w3.org/2000/svg" xmlns:xlink="http://www.w3.org/1999/xlink" x="0px" y="0px"
	 viewBox="0 0 368 300" style="enable-background:new 0 0 368 300;" xml:space="preserve">
<style type="text/css">
	.st0{fill:#929497;}
</style>
<g>
	<path class="st0" d="M90.1,185h187.9V62.1H90.1V185z M166.9,96l47.7,27.6l-47.7,27.6V96z"/>
	<path class="st0" d="M317.5,224l-20.8-20.2V58c0-9.5-7.8-17.3-17.3-17.3H88.6c-9.5,0-17.3,7.8-17.3,17.3v145.8L50.5,224H37.9v18
		c0,9.5,7.4,17.3,16.5,17.3h259.3c9.1,0,16.5-7.8,16.5-17.3v-18H317.5z M81.2,58c0-4.1,3.3-7.4,7.4-7.4h190.9c4.1,0,7.4,3.3,7.4,7.4
		v137.1H81.2V58z M84.3,205h199.5l18.9,18.4H65.3L84.3,205z M320.2,242c0,4.1-2.9,7.4-6.6,7.4H54.4c-3.6,0-6.6-3.3-6.6-7.4v-8.1
		h272.4V242z"/>
</g>
</svg>
